<svg width="32" height="33" viewBox="0 0 32 33" fill="none" xmlns="http://www.w3.org/2000/svg">
<path d="M14.6347 23.0577H17.258V17.8112H22.5045V15.188H17.258V9.94145H14.6347V15.188H9.38823V17.8112H14.6347V23.0577ZM15.9464 29.6159C14.132 29.6159 12.4268 29.2771 10.831 28.5994C9.2352 27.8998 7.84706 26.9598 6.6666 25.7794C5.48613 24.5989 4.54613 23.2108 3.84659 21.615C3.16892 20.0191 2.83008 18.314 2.83008 16.4996C2.83008 14.6852 3.16892 12.9801 3.84659 11.3842C4.54613 9.78842 5.48613 8.40028 6.6666 7.21982C7.84706 6.03935 9.2352 5.11028 10.831 4.4326C12.4268 3.73307 14.132 3.3833 15.9464 3.3833C17.7608 3.3833 19.4659 3.73307 21.0617 4.4326C22.6575 5.11028 24.0457 6.03935 25.2262 7.21982C26.4066 8.40028 27.3357 9.78842 28.0134 11.3842C28.7129 12.9801 29.0627 14.6852 29.0627 16.4996C29.0627 18.314 28.7129 20.0191 28.0134 21.615C27.3357 23.2108 26.4066 24.5989 25.2262 25.7794C24.0457 26.9598 22.6575 27.8998 21.0617 28.5994C19.4659 29.2771 17.7608 29.6159 15.9464 29.6159ZM15.9464 26.9926C18.8757 26.9926 21.3568 25.9761 23.3899 23.9431C25.4229 21.9101 26.4394 19.4289 26.4394 16.4996C26.4394 13.5703 25.4229 11.0891 23.3899 9.0561C21.3568 7.02307 18.8757 6.00656 15.9464 6.00656C13.0171 6.00656 10.5359 7.02307 8.50288 9.0561C6.46985 11.0891 5.45334 13.5703 5.45334 16.4996C5.45334 19.4289 6.46985 21.9101 8.50288 23.9431C10.5359 25.9761 13.0171 26.9926 15.9464 26.9926Z" fill="white"/>
</svg>
