<svg width="54" height="54" viewBox="0 0 54 54" fill="none" xmlns="http://www.w3.org/2000/svg">
<path d="M24.9348 38.0205H29.3609V29.1685H38.213V24.7424H29.3609V15.8903H24.9348V24.7424H16.0827V29.1685H24.9348V38.0205ZM27.1478 49.0857C24.0865 49.0857 21.2095 48.514 18.517 47.3706C15.8245 46.1903 13.4824 44.6043 11.4907 42.6126C9.49895 40.6208 7.91295 38.2787 6.73267 35.5862C5.58928 32.8937 5.01758 30.0168 5.01758 26.9554C5.01758 23.8941 5.58928 21.0171 6.73267 18.3246C7.91295 15.6321 9.49895 13.29 11.4907 11.2983C13.4824 9.30657 15.8245 7.73901 18.517 6.59561C21.2095 5.41533 24.0865 4.8252 27.1478 4.8252C30.2092 4.8252 33.0861 5.41533 35.7786 6.59561C38.4711 7.73901 40.8133 9.30657 42.805 11.2983C44.7967 13.29 46.3643 15.6321 47.5077 18.3246C48.6879 21.0171 49.2781 23.8941 49.2781 26.9554C49.2781 30.0168 48.6879 32.8937 47.5077 35.5862C46.3643 38.2787 44.7967 40.6208 42.805 42.6126C40.8133 44.6043 38.4711 46.1903 35.7786 47.3706C33.0861 48.514 30.2092 49.0857 27.1478 49.0857ZM27.1478 44.6596C32.0903 44.6596 36.2766 42.9445 39.7067 39.5143C43.1369 36.0841 44.852 31.8978 44.852 26.9554C44.852 22.013 43.1369 17.8267 39.7067 14.3965C36.2766 10.9663 32.0903 9.25124 27.1478 9.25124C22.2054 9.25124 18.0191 10.9663 14.5889 14.3965C11.1587 17.8267 9.44363 22.013 9.44363 26.9554C9.44363 31.8978 11.1587 36.0841 14.5889 39.5143C18.0191 42.9445 22.2054 44.6596 27.1478 44.6596Z" fill="#273060"/>
</svg>
