<svg width="53" height="52" viewBox="0 0 53 52" fill="none" xmlns="http://www.w3.org/2000/svg">
<path d="M6.58203 45.4682V36.2663L35.162 7.74045C35.5951 7.3435 36.0732 7.03677 36.5965 6.82026C37.1197 6.60374 37.67 6.49548 38.2474 6.49548C38.8248 6.49548 39.3841 6.60374 39.9254 6.82026C40.4667 7.03677 40.9358 7.36154 41.3327 7.79457L44.3098 10.8258C44.7428 11.2227 45.0586 11.6918 45.2571 12.2331C45.4555 12.7744 45.5548 13.3157 45.5548 13.857C45.5548 14.4344 45.4555 14.9847 45.2571 15.5079C45.0586 16.0312 44.7428 16.5093 44.3098 16.9423L15.7839 45.4682H6.58203ZM38.1933 16.8882L41.2245 13.857L38.1933 10.8258L35.162 13.857L38.1933 16.8882Z" fill="#273060"/>
</svg>
