<svg width="38" height="38" viewBox="0 0 38 38" fill="none" xmlns="http://www.w3.org/2000/svg">
<path d="M7.91667 30.0833H10.1729L25.65 14.6062L23.3938 12.35L7.91667 27.8271V30.0833ZM4.75 33.25V26.5208L25.65 5.66042C25.9667 5.37014 26.3163 5.14583 26.699 4.9875C27.0816 4.82917 27.484 4.75 27.9062 4.75C28.3285 4.75 28.7375 4.82917 29.1333 4.9875C29.5292 5.14583 29.8722 5.38333 30.1625 5.7L32.3396 7.91667C32.6563 8.20694 32.8872 8.55 33.0323 8.94583C33.1774 9.34167 33.25 9.7375 33.25 10.1333C33.25 10.5556 33.1774 10.958 33.0323 11.3406C32.8872 11.7233 32.6563 12.0729 32.3396 12.3896L11.4792 33.25H4.75ZM24.5021 13.4979L23.3938 12.35L25.65 14.6062L24.5021 13.4979Z" fill="#273060"/>
</svg>
